/* XPM */
static char *a7afe2e4c304449d9ca043419bd8a97dx9qHv2ETilyUnXex[] = {
/* columns rows colors chars-per-pixel */
"50 50 119 2 ",
"   c None",
".  c #825F31",
"X  c #906832",
"o  c #946E3F",
"O  c #9C723B",
"+  c #9B7746",
"@  c #9F7946",
"#  c #99774E",
"$  c #9F7E4E",
"%  c #9C7B50",
"&  c #A67D43",
"*  c #A97B42",
"=  c #A17E4A",
"-  c #AB854D",
";  c #B28A4D",
":  c #A68553",
">  c #A98654",
",  c #AC8954",
"<  c #A18158",
"1  c #AA875C",
"2  c #AB8A5B",
"3  c #B38C53",
"4  c #B18E5C",
"5  c #B79156",
"6  c #B99153",
"7  c #B5925C",
"8  c #BB955C",
"9  c #BE995D",
"0  c #A28661",
"q  c #AC8E63",
"w  c #B39463",
"e  c #B89664",
"r  c #BB9A64",
"t  c #B4946D",
"y  c #B69A6C",
"u  c #BD9E6A",
"i  c #BB9E71",
"p  c #C39C5C",
"a  c #C8A15E",
"s  c #C29D63",
"d  c #C19E69",
"f  c #C4A165",
"g  c #CCA461",
"h  c #CFA965",
"j  c #C3A36C",
"k  c #C9A469",
"l  c #CBA96D",
"z  c #D2A964",
"x  c #D2AB6A",
"c  c #D5B06D",
"v  c #D8B168",
"b  c #C4A571",
"n  c #C9A773",
"m  c #C7A973",
"M  c #CCAB73",
"N  c #C7AB7C",
"B  c #CBAD7B",
"V  c #D4AE71",
"C  c #CEB177",
"Z  c #CCB17B",
"A  c #D5B275",
"S  c #D9B474",
"D  c #D4B47B",
"F  c #D9B67D",
"G  c #DCBA7E",
"H  c #B9A181",
"J  c #C0A785",
"K  c #C7AE80",
"L  c #CBAE85",
"P  c #CAAF8A",
"I  c #CEB484",
"U  c #D1B585",
"Y  c #D8B782",
"T  c #D6B984",
"R  c #DBBC81",
"E  c #DBBA85",
"W  c #DDBE85",
"Q  c #DABA83",
"!  c #D7BF8A",
"~  c #D9BC88",
"^  c #D8BE88",
"/  c #DBBE8B",
"(  c #DDBD89",
")  c #CDB799",
"_  c #D1B790",
"`  c #DBBF90",
"'  c #D5BB9A",
"]  c #D3BE9E",
"[  c #DEC286",
"{  c #DFC085",
"}  c #DDC189",
"|  c #DFC08B",
" . c #DDC28A",
".. c #DFC28C",
"X. c #DEC18D",
"o. c #DFC291",
"O. c #DCC093",
"+. c #D6C09D",
"@. c #DEC498",
"#. c #DDC59D",
"$. c #DECD9B",
"%. c #E1C081",
"&. c #E1C282",
"*. c #E0C286",
"=. c #E5C184",
"-. c #E0C487",
";. c #E0C188",
":. c #E5C68F",
">. c #E6C98B",
",. c #E7CA8B",
"<. c #E0C494",
"1. c #E5CB95",
"2. c #E0C89A",
"3. c #E4C99C",
"4. c #E9CE9E",
"5. c #D3C1A6",
"6. c #DEC8A5",
"7. c #E3CBA0",
"8. c #E4CBA6",
/* pixels */
"                                                                                                    ",
"                                                                                                    ",
"                                ~ B A l C S 8 q 1 i 2 % , o N Z w 2                                 ",
"                            7 , - r 8 p l 5 = X e - : 7 8 3 5 & . O , 2                             ",
"                      T l 8 u                                       r u k m I                       ",
"                  b C A q                                               i > p M U                   ",
"              E k u B                                                         , d s *.              ",
"            u f j                                                               2.S S ;.            ",
"            3   q * 4.                                                      k k F   F v F           ",
"          s           s 3 Z                                             f s j         D ;.          ",
"        x ,               C , l                                     l M 7               @.J         ",
"      Y p                     j e l r l d & d b s - C 7 5 C k Q g 8 r                     L )       ",
"      z                       r                                   -.T                     +.]       ",
"    5                       D y                                     }                       +.'     ",
"  t l ;                     W                                       M                       6.P 5.  ",
"    A a S D                 f                                       W j                 ,.<.7.#.    ",
"      x Y S S             ~ l                                         ;             D C Y ,.c       ",
"      M k     x M         2                                           w =       e j u   1.%. .      ",
"        %.V     R z w     y                                             k     u k       S :.        ",
"          A <.      Z -.2 q                                             s e 5         D S           ",
"            F           M 7 % d F 7 D p n 9 D 7 3 u p w r w 3 q m ; B M l w         C T             ",
"            3.X.        q q                                             m         Z A $.            ",
"              A =.        b                                           e U         } T               ",
"                X.        e j                                         G         e r                 ",
"                M S         7                                       S d       M 9 M                 ",
"                  V E       Z :                                     s         l D                   ",
"                    E         ,                                   W D       2 f                     ",
"                      `       1 s                                 b       ~ ;                       ",
"                      8.O.      $                               b u       r B                       ",
"                        D X.    + @                             s       7 7                         ",
"                          s       ;                             j     M 9                           ",
"                          # b     >                           8       & I                           ",
"                            2 0     1                         p     5 <                             ",
"                              p     3                       r T   7 4                               ",
"                              j f   l r                     7   B 3                                 ",
"                                r k   f                   8 f   k b                                 ",
"                                  5   b M                 ;   l s                                   ",
"                                    Z   D               n b q 7                                     ",
"                                    u O.Z D             - i ,                                       ",
"                                      Q U m           j y p B                                       ",
"                                        S d m         ; u r                                         ",
"                                        R l -       q k ;                                           ",
"                                          e 2 e     f l *.                                          ",
"                                            , 5     x X.                                            ",
"                                              6   S h                                               ",
"                                              ` ;.U                                                 ",
"                                                K _                                                 ",
"                                                                                                    ",
"                                                                                                    ",
"                                                                                                    "
};
