/* XPM */
static char *_eb84212669d4b508670650640637089[] = {
/* columns rows colors chars-per-pixel */
"50 50 182 2 ",
"   c None",
".  c #050408",
"X  c #3B340F",
"o  c #3E3611",
"O  c #312C19",
"+  c #0E1026",
"@  c #171D28",
"#  c #3E1429",
"$  c #35242B",
"%  c #3F2A32",
"&  c #373436",
"*  c #332D28",
"=  c #453909",
"-  c #46391F",
";  c #472A37",
":  c #52263A",
">  c #5F293E",
",  c #463835",
"<  c #513534",
"1  c #4D420E",
"2  c #4C4214",
"3  c #5E541A",
"4  c #675B19",
"5  c #685800",
"6  c #74631C",
"7  c #7E721F",
"8  c #635B33",
"9  c #756824",
"0  c #6C633D",
"q  c #7E6F31",
"w  c #1E3C53",
"e  c #513742",
"r  c #6F354D",
"t  c #743150",
"y  c #7A3A57",
"u  c #494546",
"i  c #52484C",
"p  c #574946",
"a  c #5F4851",
"s  c #4F5154",
"d  c #5D5B5C",
"f  c #59554A",
"g  c #79414F",
"h  c #674252",
"j  c #694655",
"k  c #74475A",
"l  c #625C5C",
"z  c #625D50",
"x  c #62625E",
"c  c #746E5D",
"v  c #6B644A",
"b  c #7B5C69",
"n  c #6B696A",
"m  c #666567",
"M  c #756F69",
"N  c #6B6C70",
"B  c #6D7072",
"V  c #7D7B7D",
"C  c #777475",
"Z  c #8B7C1E",
"A  c #857824",
"S  c #837738",
"D  c #843A5B",
"F  c #8E3F63",
"G  c #903E65",
"H  c #90664B",
"J  c #8C4966",
"K  c #96476A",
"L  c #835065",
"P  c #9D5172",
"I  c #A34C74",
"U  c #A94C77",
"Y  c #AE4E7A",
"T  c #A34771",
"R  c #B14D7B",
"E  c #AB547B",
"W  c #A55E7B",
"Q  c #B3517E",
"!  c #83636E",
"~  c #846471",
"^  c #886976",
"/  c #9E657D",
"(  c #92707E",
")  c #A5647F",
"_  c #AE9C1A",
"`  c #B5A11C",
"'  c #918125",
"]  c #928129",
"[  c #9A8A27",
"{  c #A18D25",
"}  c #A89827",
"|  c #B19C28",
" . c #BAA62C",
".. c #C8B22E",
"X. c #D4BE2F",
"o. c #CDB631",
"O. c #C8B932",
"+. c #D2BC32",
"@. c #DCCC36",
"#. c #DAC935",
"$. c #E3CB36",
"%. c #E4D439",
"&. c #ECD33A",
"*. c #E8DC3B",
"=. c #F4DA3C",
"-. c #F8DE3D",
";. c #F0D739",
":. c #F6E23D",
">. c #FBE23D",
",. c #FDEA3F",
"<. c #B2A045",
"1. c #FEED40",
"2. c #FFF241",
"3. c #2074A9",
"4. c #B75782",
"5. c #9B6F84",
"6. c #977786",
"7. c #A76C85",
"8. c #A47E8D",
"9. c #C35989",
"0. c #C6598B",
"q. c #CE5D91",
"w. c #D46196",
"e. c #DC659C",
"r. c #E1679F",
"t. c #E367A1",
"y. c #E469A2",
"u. c #EE6CA9",
"i. c #E86BA4",
"p. c #F26EAC",
"a. c #F670AF",
"s. c #F770B0",
"d. c #F971B2",
"f. c #878A8A",
"g. c #89898A",
"h. c #948980",
"j. c #8D8F91",
"k. c #908F91",
"l. c #9B9A9B",
"z. c #929394",
"x. c #A98495",
"c. c #B3899B",
"v. c #B98B9F",
"b. c #B08798",
"n. c #979CA2",
"m. c #AD8EA0",
"M. c #BB93A5",
"N. c #B994A7",
"B. c #A2A3A4",
"V. c #A8AAAB",
"C. c #B0AEB0",
"Z. c #B1B2B3",
"A. c #BCBBBC",
"S. c #C396AA",
"D. c #C59CB0",
"F. c #D29FB5",
"G. c #D4A2B9",
"H. c #D4A0B7",
"J. c #CDA2B7",
"K. c #DBC0AD",
"L. c #D8ABC3",
"P. c #E4ADC5",
"I. c #E4B2CA",
"U. c #ECB3CC",
"Y. c #F1B5CF",
"T. c #F4B7D1",
"R. c #F5B8D2",
"E. c #FABCD6",
"W. c #FBBED8",
"Q. c #E6BAD4",
"!. c #C3C3C4",
"~. c #CCCCCC",
"^. c #D0CECD",
"/. c #DAD8D9",
"(. c #F6C0DB",
"). c #FBC2DD",
"_. c #F6C7E2",
"`. c #FDC5E0",
"'. c #FDC9E5",
"]. c #FCCCE8",
"[. c #F6F6F5",
"{. c #FBFAFA",
/* pixels */
"                                                                                                    ",
"                                                                                                    ",
"                                          g.~.                                                      ",
"                                      l.g.X.` f.!.M =                                               ",
"                                      3 } H <.$.} =.i                                               ",
"                                      9 ] q.5.+. .' 3.n.                                            ",
"                                      2 +.g H 6 = X w d                                             ",
"                                  C _ O.4 4 4 O.%.>.;.@._ s                                         ",
"                                C @.>.=.,.o.,.=.=.=.=.=.>.$.=                                       ",
"                          d Z.f $.-.=.=.=.=.=.=.=.=.=.=.=.=.>.A 8 &                                 ",
"                          5 +.*.-.=.=.=.=.=.=.=.=.=.=.=.=.=.=.>.:.l                                 ",
"                          p 2.=.=.=.=.=.=.=.=.=.=.=.=.=.=.=.=.>.} d                                 ",
"                          N +.-.=.=.=.=.=.=.=.=.=.=.=.=.=.=.=.=.$.*                                 ",
"                          + &. .=.=.=.=.=.=.=.=.=.=.=.=.=.=.=.=.*.d                                 ",
"                            4 ' :.=.=.=.=.=.=.=.=.=.=.=.=.=.=.,.} V.                                ",
"                              ' :.=.=.=.=.=.=.=.=.=.=.=.=.=.>.$.N                                   ",
"                              { :.=.=.=.=.=.=.=.=.=.=.=.=.=.+.n                                     ",
"                            j.=.=.=.=.=.=.=.=.=.=.=.=.=.=.=. .                                      ",
"                          z.| >.=.=.=.=.=.=.=.=.=.=.=.=.=.=.>.q                                     ",
"                          c 1.#.&.=.=.=.=.=.=.=.=.=.=.=.=.=.>.:.@                                   ",
"                            S { -.=.=.=.=.=.=.=.=.=.=.=.=.-.[ x                                     ",
"                              8 >.=.=.=.=.=.=.=.=.=.=.=.=.-.A                                       ",
"                              v >.=.=.=.=.=.=.=.=.=.=.=.=.,.3                                       ",
"                              z :.=.=.=.=.=.=.=.=.=.=.=.=.:..                                       ",
"                              e o.>.=.=.=.=.=.=.=.=.=.=.:.] &                                       ",
"                              Q.p >.=.=.=.=.=.=.=.=.=.=.>.4 $                                       ",
"                              m., >.=.=.=.=.=.=.=.=.=.=.>.7                                         ",
"                              o :.>.=.=.=.=.=.=.=.=.=.-.+.#.                                        ",
"                              M 9 ..>.=.=.=.=.=.=.-.&.,.0 m                                         ",
"                            u h.K.. ,.$.=.=.=.=.=.,.6 2.< ~                                         ",
"                          m [.  s k.%.[ >.=.=.=.>.O.. } K e.R                                       ",
"                        l.~.[.  V A.Z 1 :.=.>.:...> h a U w.Q #                                     ",
"                      ~.B.{.{.n   k r ; [ ,.@.- y t.v.].^ w.e.t.Y                                   ",
"                Z.V !.~.[.[.V   b e.e.e.r | O 9.y.y I.R.(.h w.U y V                                 ",
"              ~.B.{.{.{./.B     t I U K K t 9.e.Q b.W.R.E.I.J i.e.9.C.                              ",
"              !.z.^.~.A.m     J r.w.q.e.e.e.e.9.^ W.R.R.R.E.v.I e.i.k                               ",
"                      l z.  B.9.e.r.w.w.e.e.I ~ (.R.R.R.R.R.W.M.h e V.                              ",
"                              j v.~ y L h ! F.x.R.R.R.T.R.R.R.P.N.H.Z.                              ",
"                              I.).`.8.'.).).L.S.R.R.T.R.Y.R.R.).( _.i                               ",
"                            i _.R.G.M.R.R.R.D.P.R.R.R.R.R.T.R.E.b.`.6.                              ",
"                            b W.R.c.E.R.R.R.S.E.R.R.R.Y.R.T.R.R.L.F.(.l                             ",
"                            6.E.).6.).R.R.E.b.W.R.R.T.R.R.R.T.R.U.6.).b                             ",
"                            M.R.).b.W.R.R.W.8.).R.Y.R.R.Y.R.R.R.W.^ W.x.                            ",
"                          f.E.R.I.J.R.R.R.).6.`.R.R.R.R.R.R.R.R.W.x.(.P.                            ",
"                          u '.).M.L.).).).).~ U.).).W.E.W.E.).).(.v.D.H.i                           ",
"                          G E 4.y E P P P 4.D q.P J ) 7.7./ W J 4.q.Y e.U                           ",
"                        l.e.u.p.I p.p.p.d.s.F s.p.d.a.p.p.p.p.p.u.u.T t.t.u                         ",
"                        f.; : ; $ ; : : ; % u , $ : : : : : ; % u d n m n C                         ",
"                                                                                                    ",
"                                                                                                    "
};
