/* XPM */
static char *_e97255a675648f29cb3449994c4dbdf[] = {
/* columns rows colors chars-per-pixel */
"50 50 208 2 ",
"   c None",
".  c #3A310C",
"X  c #3D3412",
"o  c #351824",
"O  c #362825",
"+  c #38363B",
"@  c #35352F",
"#  c #453700",
"$  c #493C25",
"%  c #5E383A",
"&  c #5A4A00",
"*  c #584C1A",
"=  c #554B18",
"-  c #605101",
";  c #615518",
":  c #78671D",
">  c #74650D",
",  c #4D453B",
"<  c #534922",
"1  c #675431",
"2  c #73662C",
"3  c #7B7227",
"4  c #7B6E39",
"5  c #263949",
"6  c #4B3941",
"7  c #753753",
"8  c #712D4C",
"9  c #3E4143",
"0  c #524949",
"q  c #5B4850",
"w  c #545454",
"e  c #5A5558",
"r  c #4A4F54",
"t  c #6C5C4A",
"y  c #664955",
"u  c #665859",
"i  c #7F4C50",
"p  c #696455",
"a  c #7D6D50",
"s  c #695D62",
"d  c #785B68",
"f  c #4C6279",
"g  c #5A6B7B",
"h  c #656363",
"j  c #6D6C6C",
"k  c #696567",
"l  c #766B67",
"z  c #7E6670",
"x  c #727273",
"c  c #797778",
"v  c #7A7779",
"b  c #70716A",
"n  c #82711D",
"m  c #8B7B1B",
"M  c #887A27",
"N  c #857736",
"B  c #816938",
"V  c #873C5E",
"C  c #8A3E61",
"Z  c #897458",
"A  c #867151",
"S  c #8E4264",
"D  c #8A4965",
"F  c #964369",
"G  c #914968",
"H  c #88596D",
"J  c #AB4B77",
"K  c #A84D77",
"L  c #A75479",
"P  c #B4527E",
"I  c #82646B",
"U  c #877468",
"Y  c #866B74",
"T  c #8C6D7A",
"R  c #876273",
"E  c #8A747D",
"W  c #917175",
"Q  c #95831D",
"!  c #92830F",
"~  c #938325",
"^  c #9C8D25",
"/  c #928529",
"(  c #988A34",
")  c #8F823B",
"_  c #A28E24",
"`  c #AA9728",
"'  c #B19D29",
"]  c #B7AA2A",
"[  c #BCAD30",
"{  c #C2AE2F",
"}  c #C9B32F",
"|  c #CCB533",
" . c #C7BA31",
".. c #C4AF31",
"X. c #DAC434",
"o. c #D8C633",
"O. c #D5CB34",
"+. c #E2C936",
"@. c #ECD339",
"#. c #ECDC3B",
"$. c #E6D93A",
"%. c #F4DA3C",
"&. c #F8DF3D",
"*. c #EEE13B",
"=. c #F5E33C",
"-. c #FBE33E",
";. c #FBEB3F",
":. c #F7EB3E",
">. c #9B867C",
",. c #C6B34D",
"<. c #FFED40",
"1. c #FFF641",
"2. c #1E5F8A",
"3. c #1C6DA1",
"4. c #437EAF",
"5. c #B95383",
"6. c #B65381",
"7. c #887B82",
"8. c #987585",
"9. c #9C7C8B",
"0. c #987784",
"q. c #A4798C",
"w. c #A27F90",
"e. c #C35689",
"r. c #CA5A8F",
"t. c #C5598B",
"y. c #CE5E92",
"u. c #D15E95",
"i. c #D46096",
"p. c #DA639A",
"a. c #D76398",
"s. c #E1669F",
"d. c #E366A1",
"f. c #EB6BA7",
"g. c #638FB8",
"h. c #5194C9",
"j. c #838384",
"k. c #8C8E8F",
"l. c #898587",
"z. c #958C89",
"x. c #949395",
"c. c #9B9B9C",
"v. c #9A9799",
"b. c #938F92",
"n. c #AA8293",
"m. c #B28699",
"M. c #B38A9C",
"N. c #A09F9F",
"B. c #B19D90",
"V. c #BCA595",
"C. c #9D9FA1",
"Z. c #BA8EA1",
"A. c #A19FA0",
"S. c #BC92A5",
"D. c #BD96AA",
"F. c #BD9AB0",
"G. c #A2A2A3",
"H. c #A7A7A8",
"J. c #B0AFB0",
"K. c #B9B7B8",
"L. c #ACAFB0",
"P. c #C5AC95",
"I. c #C495AA",
"U. c #C499AD",
"Y. c #C193A7",
"T. c #D09EB4",
"R. c #CB9EB4",
"E. c #C7B6A5",
"W. c #D9BEAB",
"Q. c #D4BAA7",
"!. c #D5A3B9",
"~. c #D6A2B8",
"^. c #C0BCBE",
"/. c #DBC2B0",
"(. c #E4CBB8",
"). c #F0D3BE",
"_. c #DCAAC2",
"`. c #DFB4CD",
"'. c #E3ADC4",
"]. c #E9AFC8",
"[. c #ECB3CC",
"{. c #E5B3CC",
"}. c #F1B5CF",
"|. c #EABAD4",
" X c #EBB7D0",
".X c #F4B7D1",
"XX c #F5B8D2",
"oX c #F9BCD6",
"OX c #FBBED9",
"+X c #F6BFDA",
"@X c #C3C3C4",
"#X c #CFD1D2",
"$X c #F4D6C1",
"%X c #F6D8C2",
"&X c #FADDC6",
"*X c #F7DFC9",
"=X c #FBC1DC",
"-X c #F3C2DD",
";X c #ECDBC7",
":X c #FBE4CC",
">X c #FDC5E1",
",X c #F4C6E1",
"<X c #E5E4E4",
"1X c #EDEDEC",
"2X c #E7E8E8",
"3X c #F3F3F3",
"4X c #FBFAFA",
"5X c #F2EFEE",
/* pixels */
"                                                                                                    ",
"                                                                                                    ",
"                                                                                                    ",
"                                              o.M v.J.b w                                           ",
"                                          > A I | { } [ h                                           ",
"                                        c M I a.1 ^ n 2.f                                           ",
"                                        g 4 ` 8 X : ; 5 r                                           ",
"                                      j n } = [ $.%.%.$.o.$ G.                                      ",
"                                    & O.;.-.-.-.%.%.%.%.%.;.] w                                     ",
"                                  O $.%.%.%.%.%.%.%.%.%.%.%.-.%.~ M `                               ",
"                              2 ; $.-.%.%.%.%.%.%.%.%.%.%.%.%.%.%.-. .                              ",
"                              { -.%.%.%.%.%.%.%.%.%.%.%.%.%.%.%.%.X.$                               ",
"                              ; -.%.@.@.%.%.%.%.%.@.{ -.%.%.%.%.%...*                               ",
"                              . M &.@.~ -.%.%.%.-.( 1 ;.%.%.%.%.%.-. .                              ",
"                              3 ;.%.;.: | ;.%.*.N W.E.^ -.%.%.%.%.;.*                               ",
"                              h @.-.<.Z W.N N z.;X&X&XV.^ =.;.-.;.~                                 ",
"                                e ` M l Y Q.&X:X, E.%X%X4 ^ n / ~ <                                 ",
"                                  G.[ a U >.&X%Xu >.&X).) #.z.P.;.M                                 ",
"                                  @X] ( B.V.%X$XV.P.%X(.| b 4.N -.+., 0 u                           ",
"                                x M =.X.(.&X&X&X$X$X).t 3 g.h.f -.&.=.o.k                           ",
"                                G.! ] :.t *X/.W.&X&X*XU _ g 3.( -.%.#.: c                           ",
"                                  @X@ ,.p c b.x.c.k 6 d { W 8.Z X.-.' m h                           ",
"                                    9 4X4X4X3X4X3Xc.>X8.[.=XOX>Xu #.;.Q l.                          ",
"                                    O 1X<Xv k.v j 7.~.0.oXXXXXoX X^ 1.-                             ",
"                                  v.n.@Xk k.4X3X3Xe M.!.XXXXXXXX,X2 1.m L.                          ",
"                                  k._.s <Xv 4X5X4Xj.Z.I.].oXXXXX|._ 1.&                             ",
"                                    z 6 3XJ.@X3X3X2XE 6 l T.oXoXu #.%.+                             ",
"                                    @X>.<X4X0 k 1X3X3Xj.(.N.T t +.-.' v.                            ",
"                                      e 4X#XF.=Xs 3X5X3Xx.p $.%.%.;.# <X                            ",
"                                        3XH.R `.T j.4X4X^.C ` -.%.-.Q H.                            ",
"                                      H.1Xk.K y f.5.N.K.D s.t.B *.%.-.' .                           ",
"                                      7 y F m.|.G a.P a.y.C 7 7 i +.;._ j                           ",
"                                    e S J q.=XoX!.S i.V F P e.p.r.% . x.                            ",
"                                  x.y.6.m.oXXXXXoX_.D a.p.P K K K 5.R                               ",
"                                  H G I.OX.XXXXXXXoXXX8.G r.i.i.a.a.e.G.                            ",
"                                  + +XXXXXXXXXXXXXXXXXOX+X'.q.z d d d j.                            ",
"                                  m.>XZ.oXXX}..XXXXX[.S.XXoXoX[.M.=X>XI                             ",
"                                h  XXXT oXXXXXXXXXXXoXT oXXXXXOX8..XoX'.h                           ",
"                                y oX_.M.oXXX.XXX[.XX=Xn.=XXXXXXX.XI.oX=Xq                           ",
"                                ~.oXI.XXXXXXXXXXXXXXXX!.[.XXXXXXoXY oXoX'.C.                        ",
"                              e -X=X8.=XXXXX}.XXXX.XXX{.Y.oXXXXXoXU._.XX-Xq                         ",
"                              y oX=Xn.OXXX}.XXXXXXXXXX}.T oXXX}.XXoXn.=XoXR                         ",
"                              I OX].D.XXXXXXXX}.XX.XXXOXY oXXXXXXX=X9.=XoXS.                        ",
"                              9.oXU.R.oXXXXXXXXXXXXXoXoXE .XoXoXXXoXU.'.oX=Xj                       ",
"                              z n.u 9.!.[.oX=X=XoX].!.w.y 7.Z.T.T.S.T s 9.9.o                       ",
"                            8 f.p.S d.r.5.J L L J e.r.a.i.u.u.r.r.u.s.S a.p.a.l.                    ",
"                            F i.u.7 i.a.p.d.d.d.d.a.a.u.t.5.y.u.i.i.u.V y.u.u.o                     ",
"                            x j j v j j j j s h k j j j 7.x.x j j j j k.l.v v v.                    ",
"                                                                                                    ",
"                                                                                                    "
};
