/* XPM */
static char *c488e159dfd6427ab2f67b79eb0e3d03[] = {
/* columns rows colors chars-per-pixel */
"50 50 209 2 ",
"   c None",
".  c #151619",
"X  c #050F0E",
"o  c #2C0016",
"O  c #3B341B",
"+  c #3D3719",
"@  c #342A02",
"#  c #391E2A",
"$  c #390B23",
"%  c #242326",
"&  c #372C2F",
"*  c #393727",
"=  c #3B2E3B",
"-  c #343133",
";  c #3C3639",
":  c #243135",
">  c #453C18",
",  c #4B112F",
"<  c #42122A",
"1  c #5B183A",
"2  c #453C38",
"3  c #4A421D",
"4  c #504716",
"5  c #665A17",
"6  c #625300",
"7  c #796D16",
"8  c #54492E",
"9  c #615531",
"0  c #6D612B",
"q  c #74662C",
"w  c #7F7128",
"e  c #6C6139",
"r  c #1D3142",
"t  c #691F43",
"y  c #4C3D42",
"u  c #6B2447",
"i  c #7A3857",
"p  c #783D4F",
"a  c #494447",
"s  c #56444D",
"d  c #5B5E5D",
"f  c #5A5553",
"g  c #564F4F",
"h  c #63414F",
"j  c #615A5C",
"k  c #69535D",
"l  c #675054",
"z  c #6F685D",
"x  c #6F624E",
"c  c #475978",
"v  c #6A5961",
"b  c #795B68",
"n  c #666566",
"m  c #7A626B",
"M  c #656D71",
"N  c #7A7778",
"B  c #73706D",
"V  c #897819",
"C  c #8A7711",
"Z  c #867927",
"A  c #917F26",
"S  c #877835",
"D  c #8C325C",
"F  c #842D56",
"G  c #8D3F62",
"H  c #8A4765",
"J  c #884A65",
"K  c #944367",
"L  c #9A476D",
"P  c #83586B",
"I  c #9A4F70",
"U  c #A34B73",
"Y  c #A94C77",
"T  c #B4517E",
"R  c #A14C6F",
"E  c #88776E",
"W  c #866A75",
"Q  c #976779",
"!  c #867B78",
"~  c #917379",
"^  c #8C726E",
"/  c #AF9A17",
"(  c #978622",
")  c #988828",
"_  c #9E8A3C",
"`  c #A28E28",
"'  c #A69527",
"]  c #B29E27",
"[  c #A18E3C",
"{  c #B8A52B",
"}  c #B8A92E",
"|  c #C1AA2B",
" . c #C4AF27",
".. c #C9B429",
"X. c #D2BC2D",
"o. c #C9B631",
"O. c #D4BD33",
"+. c #D2C333",
"@. c #DAC435",
"#. c #D5CB33",
"$. c #DBCD36",
"%. c #CFC730",
"&. c #E3CB37",
"*. c #EBD339",
"=. c #E8D93A",
"-. c #F4DA3C",
";. c #F9DE3D",
":. c #FBE43E",
">. c #FCEA3F",
",. c #F5E53D",
"<. c #EDE23C",
"1. c #98856E",
"2. c #DBC440",
"3. c #FEED40",
"4. c #FFF140",
"5. c #186395",
"6. c #2F6996",
"7. c #2C7CB1",
"8. c #546B84",
"9. c #7B7E80",
"0. c #BC5584",
"q. c #B95684",
"w. c #957382",
"e. c #9A7887",
"r. c #A27C8B",
"t. c #A17C86",
"y. c #A77F91",
"u. c #C35989",
"i. c #CD5E91",
"p. c #D05F93",
"a. c #D36195",
"s. c #DB649B",
"d. c #E0659E",
"f. c #EE6CA9",
"g. c #E568A3",
"h. c #F46FAE",
"j. c #F971B2",
"k. c #F770B0",
"l. c #798EA6",
"z. c #2B88C4",
"x. c #458EC4",
"c. c #8D8A8B",
"v. c #818384",
"b. c #8B8D93",
"n. c #9C9C9D",
"m. c #969596",
"M. c #AA9586",
"N. c #B29B8C",
"B. c #AC8694",
"V. c #B48A9D",
"C. c #B6899B",
"Z. c #A69292",
"A. c #BBA99A",
"S. c #BBB09F",
"D. c #BC8EA2",
"F. c #B991A4",
"G. c #A7A6A7",
"H. c #B4B3B4",
"J. c #B8B9B9",
"K. c #BBB1A5",
"L. c #C3AB9E",
"P. c #C597AB",
"I. c #CB9DB2",
"U. c #C58BA3",
"Y. c #CBB9AA",
"T. c #D5BBAA",
"R. c #CAA3B8",
"E. c #D3A4BA",
"W. c #DCA7BD",
"Q. c #C5AFA1",
"!. c #DCC2AF",
"~. c #DDCCB8",
"^. c #E5CAB6",
"/. c #EDD2BE",
"(. c #F1D3BE",
"). c #A7B3C0",
"_. c #DCABC3",
"`. c #D3ACC3",
"'. c #D9B1C9",
"]. c #E3ACC4",
"[. c #ECB3CC",
"{. c #E3B2CA",
"}. c #F1B5CF",
"|. c #EBB7D0",
" X c #EBB8D2",
".X c #F3B7D0",
"XX c #F5B8D3",
"oX c #F9BBD6",
"OX c #FBBED9",
"+X c #F7BFDA",
"@X c #BEC0C1",
"#X c #C1C1C2",
"$X c #DEDDDD",
"%X c #D0CFCE",
"&X c #EDDBC5",
"*X c #FADDC6",
"=X c #F5D7C1",
"-X c #FCC1DC",
";X c #F7C0DB",
":X c #FDE3CC",
">X c #FDEBD3",
",X c #ECE0C9",
"<X c #FDC5E1",
"1X c #FAC8E4",
"2X c #DFE0E1",
"3X c #E8E8E9",
"4X c #F4F3F3",
"5X c #FAFAF9",
"6X c #F2F0EF",
/* pixels */
"                                            m.                                                      ",
"                                          ` @.x     B v.                                            ",
"                                      w ] ^ q &...X.{ n.                                            ",
"                                      9 9 U.K ) ` S 5.n.                                            ",
"                                      0 | p & 5 5 * 7.b.                                            ",
"                                m.O { o.5 V +.$.#.O.C n                                             ",
"                                ) >.:.;.;.:.-.-.-.;.>.*.V n.                                        ",
"                              ` >.-.-.-.-.-.-.-.-.-.-.-.:.] j       d                               ",
"                        5 %.#.:.-.-.-.-.-.-.-.-.-.-.-.-.-.:.$./ C / f                               ",
"                        4 >.-.-.-.-.-.-.-.-.-.-.-.-.-.-.-.-.-.:.4...                                ",
"                        f o.;.:.O.;.-.-.-.-.-.-.@.-.-.-.-.-.-.:.o.B                                 ",
"                        @ A :.:.V >.-.-.-.-.:.{ } :.-.-.-.-.-.:.@ v.                                ",
"                        9 3.;.:.o.| :.-.;.:.+.E x ,.-.-.-.-.-.;.:.C                                 ",
"                        N +.;.>.} z | ,.O.Z M.:XQ.) >.-.-.-.-.;.*.g                                 ",
"                          f } ' = Y.E N.Y.T.Y.*X*XN.` -.>.:.:.*.5                                   ",
"                            B { _ !.- >X(.T.. &X/.&X_ 7 ` { ( O                                     ",
"                               .} !.; >X(.!.. ,X(./.2.#.M.M.=.`                                     ",
"                          n.8 =.| ^.T.*X=X*XN.=X:XM.+.M c [ :.&.b.                                  ",
"                          M @.<.#.B.:XL.T.T.*X*XA.Z e ).x.d >.:.] Z +                               ",
"                            j > :.q ~.~.~ ^.=X:XY.O * z.z.z :.-.;.3.q                               ",
"                              N ] ] + M.~.^.L.E % ( | r : X.>.-.-.` %                               ",
"                              m [.;Xl 2 3 8 V.XX1Xk e.I.I.W ] ;.O.Z 3                               ",
"                            k OX-Xw.z 1.8.S I.-XB.I.+XXXXX1X~ *.;.&.*                               ",
"                          J.P.+XXXk t.l.x.S B.-XW 1XXXXXXXoX_.` :.$.;                               ",
"                          G.[.XXXXb B.6.7.) F.XXD.}.XXXXXXXX'.A :.=.-                               ",
"                          H.].OX].s C.) } 1.;X-XW B.+XoXXX-XV.@.:.@.j                               ",
"                            v b K.K.E.E.I.[.+X XE S.W ].1XE.7 >.3.7                                 ",
"                              c.1.N g <XXXOX{.k S.>XM.W m w :.;.&.;                                 ",
"                              G.#X4Xc.E.<XE.N 3XH.E y { =.:.-.:.( c.                                ",
"                              @X#X5Xm.I w.n 4X4X5Xh s.U ) -.;.;.C                                   ",
"                                m.5XH.j y $X4X4Xn.L s.s.i.9 *.;.+.0 8 %                             ",
"                              Q k 5X5X2Xn 5X6XN K g.p.0.0.s.R @.3.,.5                               ",
"                              K i 4X6X%XH.$X2 T u.K G U T Y L 8 o.6                                 ",
"                            Y i.h J.5X3XG.G.1Xw.U s.g.s.p.i.a.g.u                                   ",
"                            H C.+Xs c.c.9.B.-XOX].~ H L u.a.a.a.0.                                  ",
"                            B.<XXXR.m v V.+XXXoXXX<X[.I.F.w.V.C.y.                                  ",
"                          & -X-Xe.+X;X;XXXXXXXoXt.oXXXXXXXP.P.-X1Xe.                                ",
"                          r.-X].V.XXXXXXXXXXXXXXF.[.XXXXXX-X~ +XXX Xs                               ",
"                        ! I.oXV.I.XXXXXXXX.XXXXX].e.oXXXXXoX_.U.+X-Xr.                              ",
"                        n .XoXw.XXXXXX.XXXXXXXXX+Xr.+XXXXXXX+XW .XXX-X-                             ",
"                        a <XoX~ -XXXXXXXXXXXXXXX-Xe.|.XXXXXXoXW.E.oXOXB.                            ",
"                        w.-X.XB.-XXX}.XXXX.XXXXXoX_.W.XXXXXXXX+X~ -XXX_.B                           ",
"                        ].oX XI.oXXXXXXXXXXXXXXXXX.XB.-XXXXXXXXXV.].XX<Xa                           ",
"                        |.oX].].XXXXXXXX.XXXXXXXXXoX~ -XXXXXXXXXW.r.XX+XD.                          ",
"                      v R.'.V.R.[.XXoX+X+X+XoXXX[.'.W E.{.[.[.|.{.m `._.R.d                         ",
"                      i 0.u.G Y H J J P P J J J H 0.U Y R H H H 0.R u.T a.U                         ",
"                      g.h.k.Y g.j.j.f.f.f.f.h.k.j.h.d.q.j.j.j.j.k.s.a.k.h.h.l                       ",
"                      $ , o X < 1 u D D D D F t 1 o . a X o , , o . a % # # -                       ",
"                                                                                                    ",
"                                                                                                    "
};
