/* XPM */
static char *_6ad7e087e794b05be0ffdcda3aca1822BBLHowPZyOdagBL[] = {
/* columns rows colors chars-per-pixel */
"50 50 26 1 ",
"  c #E9D2EE",
". c #EBD3F0",
"X c #ECD3F0",
"o c #EDD3F0",
"O c #F1D2F1",
"+ c #F2D4F3",
"@ c #F4D6F5",
"# c #F7D7F6",
"$ c #F8D7F6",
"% c #FAD7F7",
"& c #F1D8F5",
"* c #F3D8F5",
"= c #F6D8F4",
"- c #F7D8F5",
"; c #F7D9F5",
": c #F4D8F6",
"> c #F6D8F7",
", c #F7D9F7",
"< c #F5DBF6",
"1 c #F6DCF7",
"2 c #F8D8F7",
"3 c #F8DAF6",
"4 c #F9DBF7",
"5 c #F7DDF8",
"6 c #F8D9F8",
"7 c #FBDAF9",
/* pixels */
"336333333#-333--31=3-44-451=13335<551444-43=-3-=--",
"333333333#-331--3-==---44---3333<55<-----14;5-----",
"3333333333333--33=3=-5-#----3433-<5--1-==3336--#--",
"33363443$3$33$-13#33,--#---1;;33-15-4--1;333---,11",
">,663333>>>>>,,,$-,,,,,>31$=;;3333334--3;36#6#>,--",
"##363336#>6#>,,,--,,>>#,3==$;;;;333344-6-#>>>>#>--",
"##,-1-#-#>6#>6,,,,,,6--,=$==;;;;33335--3,,,,66##-,",
">>--3---$>#6>6,-,---$#--=#33;;;;333333----#,###>#>",
">66#-3--63,,>>#-333==3=3$=>6$----13--3-5-#3>>#>>##",
",66#1--466,6##--33=33=3=-3>>##43--3-#3---##6>>#>#@",
"6,66-54,,#>>>###333=3==3-,,>3=13#-##1=3---#>>>,>@@",
"6,-#----66#6,,#>-3=3=331-,,,=#33###6=3#-6->>##,,>#",
"6>----4->6-,,,>##-----1--,,,----6#>#6>,#,,,#-#@@##",
"6>------>#-#,,#,----5----,,,3-1-,3>6>>>#,,,#@#-->#",
"$--3---5$--3---,,,------4----,3-33333#-,,,,#--,,##",
"#--15---#--3,-,,,-----5-,---,-6-336363->>,,-##,,@,",
"3333363333##-$66,,,---333#33#3,,333333--,,,,--,,,#",
"333,363,6333-366,,--##3#3=14=3>,33633###,,,6-#-,>#",
"#,6#66>>636>-->>,,--3,>6=---$#6#>>6>####6>,,-,--3#",
">>#636##,->,,,#6,---3#6>3#-1#6>>>#$####>6,,,,,---#",
"6>6#6#6#,>6#6#>#,,4--6,6,-###,6>#>>6#6>>>6>6#6##--",
"66#6>666,6>>6#>666,-,6>,6--#-,>#666#>>6###>>>#,$--",
"66>>>6666>6#>6>,666,,,6#6,#>#66666>>>6>$#,>>>6#>,,",
"#6#6#6#66>#6>#6,6666,,,,,,#6,6666#6#6##6###>666##-",
">>$6$6$66>6#>>-----466616O##,6666$6$>66###$>>>>6#@",
"$6%66$$66663333344---33--,>6>>6>7$$$6#6>#6>>6#6,#,",
",6$$$$6666333333163---33-,,66##>6$$$#6#>>>6##66###",
",>6$$$6$>-##3$#33431------,>666>7$$$>>6#>>>6,##6@>",
">$$6$$$$>6#633333333--6-$>#6663666$$$$666>6#>>6>>@",
"66>66$>6>#6633-333-##66-,#6>3333666$$6$66$#6>>#>##",
"$6666#666666$-3334313,6666>6333#66$6$6$6>#>>>>###>",
"666>#6#66666>,3334333#666>3333##6$6$6$6>66#6>>#>>,",
"6$6$$$$6$6$$$$$66$66$6$$$6$6666,6666$$6$66##>,$$$$",
"$676$$$$$67$$$6$>$$67$$$$$6$#66#666>$6$6$6##>>$$$$",
"$7$6$$$6%$766$$6##66$$$$$6#>>6>666#>$$$6>>>6##66-6",
"$$6$$$6$$6$$$6#6$6$6$$$$##6>>#666#6>$#$>6#6###6$-,",
"6666$3$6>>>,6>6666#>6$$$$#>6666666@###,66>,,####,,",
"$6##$6##$>>,$$>#>>6#$6$3$>,,6>66#6##:-,,6>,,##>>--",
"6$$6$6$##>,--->66,##,633$--,#666,>#-,,,,66,,-->>--",
"%$3$$6$3-#---3#$33-3$33#$#33-3333##---,#$36,-6----",
"336-66#$----33--333333634-333333=4----33#345-333--",
"33--#>,33-5-33444433333-=3333333-1-=--3633-633-31-",
"333->>>33--5-54-33--333-4-3-3333=4--5---3,------5#",
"33#3#66>6#--4-4416--33#-4-3-333131-1---,-----5---,",
"-5--#>>>,,-#-133333-##>,--1;==44#-6----3,,--1-----",
"-4--#>>>,,-#--333633-#6,--3;4===#-,,#3-66-6#3-;1--",
",,--###>:###-,-->666--,,3=3=3-=366,6,6666-#,--33#,",
"@---###>>##$>---,,6,,,,--=--=-3366>##6>,6>#>,#33#,",
"&&&&&,&####@#@@###:>>@#####---=366>########:,>##@#",
"   ...XXO@@@@@##-@#,###@@@&-&===#6>####>@@@@@@@@.@"
};
