/* XPM */
static char *_45e4c70a64e45df9d8ed72f5fe9a0bc[] = {
/* columns rows colors chars-per-pixel */
"50 50 168 2 ",
"   c None",
".  c #ECB77C",
"X  c #F3BB7B",
"o  c #F6C47C",
"O  c #F8C67D",
"+  c #F7C87F",
"@  c #FCCB7C",
"#  c #EAB881",
"$  c #ECBA8B",
"%  c #F1B788",
"&  c #F4BC8F",
"*  c #EFB591",
"=  c #EEBA97",
"-  c #F2BE93",
";  c #F3BD9C",
":  c #EEB8A2",
">  c #F4B7A3",
",  c #F5BAA7",
"<  c #F5B7AB",
"1  c #F5B9A9",
"2  c #F8A9BF",
"3  c #FBB4BE",
"4  c #FAB8B9",
"5  c #EDC186",
"6  c #F4C483",
"7  c #F8C781",
"8  c #F7C885",
"9  c #FAC984",
"0  c #F4C48C",
"q  c #F6C98C",
"w  c #F9CA8C",
"e  c #FDD08F",
"r  c #EFC09B",
"t  c #F3C495",
"y  c #F6CA93",
"u  c #F9CD94",
"i  c #F3C29B",
"p  c #F5CD9B",
"a  c #F8CF9A",
"s  c #FCD295",
"d  c #F7D19D",
"f  c #FAD29D",
"g  c #EFCCA5",
"h  c #EECAAA",
"j  c #F3C2A4",
"k  c #F3CDA3",
"l  c #F4C4AC",
"z  c #F2CEAA",
"x  c #F6D2A3",
"c  c #F9D4A4",
"v  c #FED9A5",
"b  c #F5D3AC",
"n  c #F9D5AA",
"m  c #FEDBAA",
"M  c #F4C3B3",
"N  c #F6C7B8",
"B  c #FAC3BD",
"V  c #EDD0B6",
"C  c #F3D4B3",
"Z  c #F9D4B1",
"A  c #F7D9B5",
"S  c #FADCB4",
"D  c #F1D6B9",
"F  c #F5DABB",
"G  c #F8DDBC",
"H  c #FDE0B5",
"J  c #FDE2BD",
"K  c #FBACC1",
"L  c #FCB2C5",
"P  c #FBBBC2",
"I  c #FEB5C9",
"U  c #F7BBCA",
"Y  c #FBBDCD",
"T  c #FDBED0",
"R  c #F6C4C0",
"E  c #FAC1C4",
"W  c #FACAC3",
"Q  c #F7C0CF",
"!  c #FBC2CE",
"~  c #FAC9CD",
"^  c #F5DDC3",
"/  c #F8DEC1",
"(  c #F5DFCA",
")  c #FBC3D0",
"_  c #FCC0D0",
"`  c #FCC2D0",
"'  c #FEC2D1",
"]  c #FFC1D2",
"[  c #FFC3D3",
"{  c #FBC4D1",
"}  c #FBC5D1",
"|  c #FCC4D1",
" . c #FFC4D3",
".. c #FFC3D4",
"X. c #FFC3D5",
"o. c #FDC3D2",
"O. c #F9C8D3",
"+. c #FAC9D3",
"@. c #FCCBD1",
"#. c #FDCCD3",
"$. c #F9CAD4",
"%. c #FDC8D4",
"&. c #FDCBD6",
"*. c #FBCDD7",
"=. c #FBCED7",
"-. c #FCCDD7",
";. c #FECCD7",
":. c #FECED7",
">. c #FECBD6",
",. c #F9CED8",
"<. c #FBCED8",
"1. c #FCCDD8",
"2. c #FCCED8",
"3. c #FFCED9",
"4. c #FFCFD9",
"5. c #FFCED8",
"6. c #FFCED9",
"7. c #FBD2DB",
"8. c #FAD2DB",
"9. c #FFD1DA",
"0. c #FFD1DB",
"q. c #FFD2DB",
"w. c #FBD4DB",
"e. c #FBD2DC",
"r. c #FBD3DD",
"t. c #FCD2DC",
"y. c #FFD3DC",
"u. c #FED3DD",
"i. c #FFD4DD",
"p. c #FFD6DD",
"a. c #FDD4DE",
"s. c #FFD4DE",
"d. c #FFD5DF",
"f. c #FFD7DE",
"g. c #FFD6DF",
"h. c #FED3DC",
"j. c #FFD8DF",
"k. c #FDD8DF",
"l. c #FCE4C2",
"z. c #F6E1C8",
"x. c #F6E2CC",
"c. c #F6E3CA",
"v. c #F8E3CA",
"b. c #FEEACB",
"n. c #F6E3D0",
"m. c #F6E5D3",
"M. c #F9E6D5",
"N. c #FFEED1",
"B. c #F7E9DA",
"V. c #F8E9DA",
"C. c #FFD7E0",
"Z. c #FFD7E0",
"A. c #FFD8E1",
"S. c #FFD9E1",
"D. c #FFD9E2",
"F. c #FFDAE2",
"G. c #FFDBE2",
"H. c #FFDAE3",
"J. c #FFDBE3",
"K. c #FFDCE3",
"L. c #FFDCE4",
"P. c #FFDDE4",
"I. c #FFDDE5",
"U. c #FFDEE5",
"Y. c #FFDFE6",
"T. c #FFDAE2",
"R. c #FFE0E6",
"E. c #FFE0E6",
/* pixels */
"                                                n.x.                                                ",
"                                            F C a x b D                                             ",
"                                            C k k x k b                                             ",
"                              z u u s u w 7 @ @ q u @ @ O w u s y s k                               ",
"                            8 7 w O + O 8 0 j l M M l j t 8 O + O 8 6 8                             ",
"                          A 9 O @ @ 0 M ~ $.&.9.,.-.9.=.1.@.N 0 @ @ O 9 x                           ",
"                  x s u f q O @ @ i ~ -.s.8.t.A.s.t.A.r.r.s.1.O.l + @ o 7 x u s d                   ",
"                A s q m v 6 0 i i #.,.w.A.A.A.A.A.A.A.A.A.A.8.=.-.i - 0 6 v m y s x                 ",
"                y s q m v j ! ..Y 1.A.A.A.A.A.A.A.A.A.P.R.P.A.s.1.[ I I > c m q e s                 ",
"                c s w 8 0 Y Y [ Y 1.A.A.A.A.A.A.A.A.A.R.R.P.A.s.1.Y I L L - w w s u                 ",
"                  s s s i T ! ..Y 1.j.A.A.A.A.A.A.A.A.R.R.R.A.s.1.Y I I I ; s s s                   ",
"                  C s s t ........{ s.P.A.A.A.A.A.A.A.R.R.R.A.s.1.Y I I I ; s s c                   ",
"                    A s y E ..Y ..| t.P.A.A.A.A.A.A.A.R.R.R.A.9.{ | I L L y s n                     ",
"                      A s j Y O...) 9.P.A.A.A.A.A.A.K.R.R.R.A.9.) [ Y Y , u c                       ",
"                        n u E Y ..Y 1.P.A.A.A.A.A.A.A.R.R.R.A.1.[ ..L 3 y f                         ",
"                          s j ....Y 1.A.A.A.A.A.A.A.A.P.R.P.C.1.! [ I , u                           ",
"                          z.y E [ Y -.s.K.A.A.A.A.A.A.P.R.P.s.1.Y Y L y F                           ",
"                            u l | Y { t.P.A.A.A.A.A.A.A.P.A.9.&.[ ! < u                             ",
"                            F t [ ..) 9.P.A.A.A.A.A.A.A.A.A.9.| [ I t n                             ",
"                              u B ..Y 1.A.A.A.A.A.A.A.A.A.C.1.! [ 3 y                               ",
"                              u j [ Y 1.s.P.A.A.A.A.A.A.A.s.1.Y Y 1 s                               ",
"                              b t ! Y { 9.P.A.A.A.A.A.A.A.t.-.U ! i a                               ",
"                              / u E ..) 1.P.A.A.A.A.A.A.C.1.) Y L y A                               ",
"                              M.s M ..Y 1.j.K.A.A.A.A.A.r.=.Y I 4 u ^                               ",
"                  B.b t k C n.n.s j ! Y -.9.P.A.A.A.A.A.8.=.K Y 1 s ^ B.D k t x n.                  ",
"                ( m d u f x a y 5 r Y Q ! =.k.S.r.s.r.r.,.! L U : 6 q u f x u a m F                 ",
"                l.J u y y c m n 0 $ [ ) U $.8.S.r.r.C.8.&.L L I = 0 x m m y 0 s S l.                ",
"                b.S y m 0 u c m s 0 [ ..Y &.1.9.s.s.9.&.[ K I I t s m c u 0 m y S b.                ",
"                S n u f q w y v s 0 Y ! Y Y 1.1.1.&.....I L Y L i s v y u 6 f u c S                 ",
"                ^ m f f y 7 s y s t I Y I K [ ! Y Y Y Y 2 L Y L ; s u u + 8 x f m F                 ",
"                          + w q s ; Y ! | &.-.1.1.9.9.9.1...Y I > s q q @                           ",
"                          x o 0 W 1.&.&.t.A.P.R.R.R.R.R.R.P.A.s.&.E & o u                           ",
"                          F % -.1.&.&.s.P.P.P.P.P.P.P.P.P.P.P.P.s.1.! * C                           ",
"                          ^ R t.1.1.1.1.9.9.9.9.9.9.9.9.9.9.9.9.1.1.&.P D                           ",
"                          z B | &.&.1.1.-.1.1.1.-.1.1.1.1.1.1.&.&.[ Y P k                           ",
"                        y 6 n B 3 L K K K K K K K K K K K K K K L P B Z 7 q                         ",
"                        y k b p y c n c c n n n n n n n c x c n n a p x k y                         ",
"                        g l.S b.q q w q w w u a p p a u u w q u w 8 b.A l.k                         ",
"                        V J G l.k b O X X . h y a p y h # X X O n b G G l.C                         ",
"                        ( n S x                 b C                 p J S D                         ",
"                        M.c n p                                     k m m ^                         ",
"                        ^ f m x                                     S c c D                         ",
"                      S v p c c                                     C v p v H                       ",
"                      b.m d x y                                     n v f m b.                      ",
"                      J m x m y                                     a x p m J                       ",
"                      V.x x f y                                     q p x x n.                      ",
"                      z.l.H m f                                     f m S l.G                       ",
"                      F b.l.m v                                     f m J N.A                       ",
"                      B.l.H m n                                     S m S b.z.                      ",
"                        B.l.v.                                        c.l.B.                        "
};
