/* XPM */
static char *f7b030d59f10410cba5db6993032c0a8xp2sHW4R92eL4DOv[] = {
/* columns rows colors chars-per-pixel */
"50 50 169 2 ",
"   c #93857C",
".  c #96897D",
"X  c #978C81",
"o  c #9A8D83",
"O  c #9C9387",
"+  c #9F948B",
"@  c #A39286",
"#  c #A4958B",
"$  c #AA978F",
"%  c #A4998C",
"&  c #AA9A8E",
"*  c #A69C92",
"=  c #AC9C93",
"-  c #B19E95",
";  c #AEA196",
":  c #AEA29A",
">  c #B2A296",
",  c #BAA495",
"<  c #B3A49B",
"1  c #B9A59A",
"2  c #B5A99D",
"3  c #BBAB9D",
"4  c #B6A7A1",
"5  c #B9A7A0",
"6  c #B5AAA1",
"7  c #BCADA2",
"8  c #BEB2A5",
"9  c #BFB8A7",
"0  c #BDB4A9",
"q  c #C2AD9E",
"w  c #C2ACA2",
"e  c #C8ADA0",
"r  c #C3AFAA",
"t  c #C3B3A5",
"y  c #C8B3A6",
"u  c #C2B9A7",
"i  c #C4B5AA",
"p  c #C9B5AA",
"a  c #C5BAAC",
"s  c #CABBAD",
"d  c #D5BAA6",
"f  c #D2B6AE",
"g  c #D3BCAC",
"h  c #DBBFAE",
"j  c #C9B5B1",
"k  c #C6BEB1",
"l  c #CBBDB2",
"z  c #D5B7B0",
"x  c #D2BCB2",
"c  c #DDBEB6",
"v  c #DEBFB8",
"b  c #E1BEB3",
"n  c #E3BEB8",
"m  c #D7C3AE",
"M  c #DAC2AE",
"N  c #CDC2B4",
"B  c #CCC3B8",
"V  c #D4C3B4",
"C  c #DBC4B4",
"Z  c #D7C8B6",
"A  c #DCCAB6",
"S  c #D6C6BB",
"D  c #DCC5BA",
"F  c #D4CABD",
"G  c #DDCCBC",
"H  c #DDD1BF",
"J  c #E3C4B4",
"K  c #E4CAB6",
"L  c #EACAB6",
"P  c #E4C5BB",
"I  c #EAC5BD",
"U  c #E4CBBC",
"Y  c #EACDBB",
"T  c #F1CDBC",
"R  c #E4D1BE",
"E  c #ECD3BD",
"W  c #EBD9BE",
"Q  c #F1D3BE",
"!  c #D8C6C0",
"~  c #D7C8C0",
"^  c #DCCDC2",
"/  c #D7D0C0",
"(  c #DED2C3",
")  c #DCD4C9",
"_  c #E2C7C0",
"`  c #E4CCC2",
"'  c #EBCCC3",
"]  c #E6CFC9",
"[  c #EECFC9",
"{  c #F0CEC5",
"}  c #F1CFCA",
"|  c #E4D3C4",
" . c #EBD4C3",
".. c #EAD0C6",
"X. c #E9D3C7",
"o. c #E8D6C4",
"O. c #E4D9C7",
"+. c #ECDAC5",
"@. c #E1D2CA",
"#. c #E2D2CA",
"$. c #E7D1C8",
"%. c #E1D6C9",
"&. c #E3D4CA",
"*. c #EBD2C8",
"=. c #ECD3CB",
"-. c #EBD6CB",
";. c #E9D7CD",
":. c #EAD6CF",
">. c #ECD6CE",
",. c #E2D8CB",
"<. c #E4D9CA",
"1. c #E6D9CB",
"2. c #E7DCCA",
"3. c #E7DCCD",
"4. c #E9D9C8",
"5. c #E8DACC",
"6. c #EBDACF",
"7. c #ECDBCC",
"8. c #EADCCD",
"9. c #EDDCCC",
"0. c #F2D4C3",
"q. c #F3DBC5",
"w. c #F9DDC7",
"e. c #F2D5CB",
"r. c #F3DCCB",
"t. c #F9DDCB",
"y. c #ECD6D1",
"u. c #E4DBD1",
"i. c #E2DCD1",
"p. c #E4DFD0",
"a. c #EADDD0",
"s. c #E9DFD1",
"d. c #EBDCD3",
"f. c #E8DFD2",
"g. c #ECDCD1",
"h. c #F3D6D1",
"j. c #F2DCD3",
"k. c #F9DDD2",
"l. c #F6DDD9",
"z. c #FADDDA",
"x. c #EEE2C7",
"c. c #EDE3CB",
"v. c #E8E1CF",
"b. c #F4E2CD",
"n. c #F9E2CD",
"m. c #F2EACE",
"M. c #E7E0D2",
"N. c #E9E2D0",
"B. c #EBE2D3",
"V. c #EFE1D3",
"C. c #EDE2D3",
"Z. c #EDE3D4",
"A. c #EBE4D6",
"S. c #EDE6D6",
"D. c #EEE7D7",
"F. c #EEE3D8",
"G. c #EFE5D9",
"H. c #EEE6DB",
"J. c #F4E2D4",
"K. c #FAE4D4",
"L. c #F3EAD2",
"P. c #F9E8D5",
"I. c #F4E3DB",
"U. c #F0E6D9",
"Y. c #F9E4D9",
"T. c #F6E9DE",
"R. c #F9E8DA",
"E. c #F6EBE2",
"W. c #F8EAE1",
/* pixels */
"2 G V Z V ^ G V M Z Z Z Z D S Z ; x | ) @.) $.) @.` ` D D G D G ^ * i.| G ) | ,.) ) ( 2.( ( ( ^ H ~ ",
"3 Z K A Z ` | R h G C h M M M A 3 _ -.>.-.=.P P P _ ` ` ` ' ' P #.: U.7.X.g.<.N.N.X.o.8.8.8.| Z.A.M.",
"> A C M A | | C A ( M h G U Z M 3 D -.-.>.` U ` -.U U ` U ` U =.g.< G.J.| M.v.Z.Z.v.o.a.8.M.o.N.G.i.",
"> M C R U R U Z M C g K K C C U 7 D ` X..._ _ _ ` U -.=.-.-.-.-.p.: M.Z.O.v.2.-.o.X.<.a.<.,.3.D.M.( ",
"2 A U G Z C G R U A C M M J A m 3 c P P P U U _ P =.,.-.-.=.y.-.M.: N.4.+.8.c.2.| ` 7.<.Z.a.G.Z.u.( ",
"* V N s t y s l y y s s y q y p & i x f f f z x f x S S ! S ! ! ^ + ) F S N F F V Z F ^ S ( ) ) F B ",
"s a a N k a a N . r a j s p p t s p p r w i i y 1 = s N N N N s N F N N N N N N a % 0 a 0 t u 9 a B ",
"<.<.<.O.R G G &.= n P P ' =.P P P U [ P b P U ' | 3 +.b.c.c.c.L.m.L.m.x.q.c.b.m.L.8 F | ,.( O.<.+.,.",
"| H R | H G A | & P P U =.=.' ` I n ' n c n U D G a m.m.L.L.m.m.x.W W W W W W c.m.9 V H ) O.<.) ( U ",
"G G ( O.( G G O.= P U P =.=.) =..._ P n J n ' ' Z a L.L.L.L.x.K.W +.+.+.x.c.W c.m.9 Z H O.<.<.3.H Z ",
"G H | G R | ( 3.= P ` P =.[ =.=.K ' J ' ' P n ` K u b.L.L.m.m.b.W +.+.x.x.W R m.W 9 H ) O.O.<.<.H G ",
"| ( G H ( G ( p.= P ` P ` =.=.U _ ' P @.=.=.P _ S u c.L.L.L.L.c.W +.x.c.v.x.W c.+.8 F M.O.O.,.<.) ,.",
"+ < < : 2 : = : < > : ; ; < < < o : 6 6 4 4 - 1 7 2 6 2 2 2 7 6 < O 6 2 < 2 , 2 2 0 2 2 2 : 2 6 2 & ",
"8 ) @.( | ` v G ` ^ ` G S | &.&.0 d.E.W.T.T.7.g.F.g.F.C.N.g.E.E.T.< R.e.0.+.e.l.R.L.R.L.P.b.+.+.8.+.",
"6 | $.$.G v P v D C D D ` @.@.&.0 G.E.W.W.T.7.e.I.d.J.U.7.I.E.E.W.2 L.q.q.E 0.w.K.K.K.K.J.K.n.n.P.8.",
"< G D D S D D D D D c U ` @.@.` 4 d.W.T.I.7.g.7.g.g.j.g.g.T.W.W.W.< R.e.q.q.Q X.b.R.P.R.K.R.K.P.K.8.",
"2 P _ ^ G U U D C C C D D D D D 7 a.a.Z.a.y.j.g.e.+.7.j.W.E.E.T.E.= ' 0.K.q.E 0.n.J.K.K.K.P.K.K.P.7.",
"< G ` ` G D ^ G D D _ G U G U D 5 @.l.I.I.C.j.g.7.I.7.7.l.j.I.C.a.: r.r.b.J.r.0.K.r.P.K.P.K.L.K.K.6.",
"X & = * = # # = # # & @ # $ = % # * : ; = ; 2 > = = ; ; - - - : < O < < : < 2 - & = < 2 < > < 1 2 2 ",
"R.R.R.Y.K.k.K.K.> e.+.R Y  .4.X...Y +.+.X.E +.E ` a r.e.I.P.Y.J.L.R.R.R.b.=.r.c.Z.9 Y b.r.J.J.0.P.K.",
"K.n.K.t.0.t.n.k.= J Y E Y L E W X.J Q E K K Y Y G t E w.K.n.n.n.n.n.n.n.n.E b.r.b.i L q.w.q.Q w.n.n.",
"n.K.n.t.Q Q 0.w.= L J E E K  .Y J L +.L U Y K K A w t.b.J.K.j.r.r.q.r.r.r.R q.+...8 Y q.q.0.w.w.t.K.",
"T w.Q T Q q.Y t.= L L K E K K Y E E  . .K +.W Y U 3 q.q.w.n. .Q 0. .n.m.E  .0.r.b.8  .0.q.K.0.Q Q Q ",
"t.0.T w.w.b.e.q.> E Y J L E K q.K L L E J E E R H t +.0.E E Q E E q.n.b.r.t.E Q e.8 0.n.q.0.Q 0.q.w.",
"p y y q u i u q   q 3 3 2 1 3 q q 1 3 3 , , 3 3 3 o 3 q t i t i w y a s a s i q w # , t y q q t y q ",
"1 U A W W R R R x.W R +. .+.4.W 2 Z ` Z C Z G ( | | | ( ( ) ( | G * <.&.<.&.&.<.<.@.G G G &.4.,.G Z ",
"y Q Q Q W n.q.n.n.n.W W q.b.Q W t Z  .o.E U .. .4.X.o.R X.+.+.O.K : d.Z.J.b.c.o.| R X. .Y Y J.c.+._ ",
"u E E E q.E x.n.m.n.Q Q 0.b.b.Q t Z Y | K J C K  .W K J K +.+.K E ; 4.j.9.9. . . . .7.o.o.o.E 9.b.,.",
"y Q L E x.b.E E Q Q Q Q Q x.W E 8 A K  .( Z ^ J C A G G G K  .G G = _ o.` |  .+.E Y W | c.9.X.6.J.,.",
"q W n.E W q.b.Q x.W q.W Q Q q.x.3 d J A G ^ ( C K G Z R H C U ` | : o.^ | U  . .R E W U R X.9.b.c.<.",
"& W R R M K A M A A M A M M G R 2 q d V t i l l s x p f s s l i l O l l N Z Z Z Z H S Z G G / ^ / F ",
"N N N N N s p N . N N N y y t t N N l p i p s s 8 ; l l s l V p s V l l l l l p p O i a s p s s s p ",
"L Q 0.r.t.Y 0.I.< &.U U | O.` U U +.a.X.` ` #.7.-.i e.0.0.K.I.e.e.r.e.t.r.e.t.j.0.t U 0.Y 0.0.Y  . .",
"+.Y q.r.+.L L J.= |  .U ` ..`  .` U -.7.7.X.7.7.&.i 0.e.e.0.k.e.r.0.e.K.k.0...r.e.t C 0.+.r.q.Y E +.",
" .0.q.Y '  .Y C.- |  .| K =.| 7.5.| 8.7.8.8.8.N.=.r ' 0.7.e.e.e.e.0.I.J.z.K.e.0.e.t C r.r.b.r.Y Y 0.",
"0.Y Y Y q.Q E J.= U ` U ` ` U U ` 7.7.g.8.-.X.| G w k.K.t.t.e.0.r.k.K.t.t.K.k.0.0.8 U r.r.r.r.r.e.X.",
"'  .+. .r.` r.J.= ` ` | | | $.+.@.g.g.a.7.` U X.^ i Y.e.e.J.l.j.Y.K.Y.z.j.Y.I.j.Y.i ..g.Y U Y q.' Y ",
"@ > 2 6 7 < < 2 1 < 2 2 < < < > X - 4 4 < < < , 1 < < < - < 1 < 4 o < 2 - < < 4 < 7 < < < < > > - = ",
"r e.R.R.T...e.J.....Y.g.r.j.e.d.0 ` y.e.j.h.h.I } =.y.y.e.' } ' y.= ` ` y.@.@.a.u.-.` ` ] y.@.-.] ^ ",
"a t.7.e.J.K.r.e.e.r.e.e.e.e.j.Y.k [ e.e.=.=.e.I =.[ ' I I { [ ' =.= _ ` a.y.g.g.a.y.] ` ] d.d.d.y.! ",
"l k...0.e.Y.e.=.e.r.e.'  .e. .l.0 D ' ' e.e.{ I ' e.e.I I ' ' e.y.= ] y.d.d.d.d.y.d.y.` ] ] ] d.d.^ ",
"l r.e...e...r.J.J.=.' e.0.j.j.r.i c I [ h.h.} { I I  .I J U [ P h.= -.d.d.d.d.y.y.] ! ` ` ` ! y.d.) ",
"p =.l.j.+.j.I.G.U.e. . ...g.J.=.i P ' ' t.h.h.h.e.} { I n I e. .[ = ] ] y.y.a.-.^ ` ] y.-._ ` _ ] ) ",
"o > : : : < : < ; < > < > > > - % @ = & = - - - $ $ - $ $ $ = : - o = * * - = = = # $ $ $ - - = = > ",
"-.h.I.y.y.=.l.l.> +.d.J.J.a.M.| U  .2.d.8.R U 6.` 8 7.J.o.M.&.Z.i.7.A.G.Z.7.8.8.-.0 y.W.E.E.y.h.y.h.",
"e.} y.j.h.h.=.h.: <. .+.4.+.7. .K R o.+.4.Y U  .^ 0 N.a.| 3.,. .=.$.8.A.Z.7.4.<.-.0 y.W.l.l.y.d.[ h.",
"l.h.[ j.} e.g.h.: 8.4.7.+.4.4.+.G  .| W R R R W G 0 a.N.| 3.M.2.2.( 8.N.N.Z.o.o.| 0 y.z.z.y.} e.h.I.",
"I.e.=.g.[ } e.l.; | U  .| +.X.Y K X.| R J K R  .G 7 X.d.o.+.M.2.v.| | X.4.7.&.5.&.0 y.z.j.h.h.} l.l.",
"z.[ h.h.' { z.l.$ I U Y X.+.+.U U K E | J J E R G 1 +.N.| | R (  .4.=. .2.8.3.M.N.i $.h.h.h.[ h.l.z.",
"j w w 7 r j w r   < 1 1 7 0 t 7 q , 3 3 , > 1 7 , o 3 0 0 7 i 8 3 3 0 0 a 0 8 i 9 % 6 r r 7 r a i j "
};
